<?xml version="1.0" encoding="UTF-8" standalone="no"?>
<!DOCTYPE svg PUBLIC "-//W3C//DTD SVG 1.1//EN"
 "http://www.w3.org/Graphics/SVG/1.1/DTD/svg11.dtd">
<!-- Generated by graphviz version 2.40.1 (20161225.0304)
 -->
<!-- Title: dependencies Pages: 1 -->
<svg width="504pt" height="284pt"
 viewBox="0.00 0.00 504.00 284.00" xmlns="http://www.w3.org/2000/svg" xmlns:xlink="http://www.w3.org/1999/xlink">
<g id="graph0" class="graph" transform="scale(1 1) rotate(0) translate(4 280)">
<title>dependencies</title>
<polygon fill="#ffffff" stroke="transparent" points="-4,4 -4,-280 500,-280 500,4 -4,4"/>
<text text-anchor="start" x="227.0091" y="-42.4" font-family="sans-serif" font-weight="bold" font-size="14.00" fill="#000000">Legend</text>
<polygon fill="#ffffb3" stroke="transparent" points="14,-10 14,-30 34,-30 34,-10 14,-10"/>
<text text-anchor="start" x="37.629" y="-15.4" font-family="sans-serif" font-size="14.00" fill="#000000"> &#160;Declarations</text>
<polygon fill="#8dd3c7" stroke="transparent" points="127,-10 127,-30 147,-30 147,-10 127,-10"/>
<text text-anchor="start" x="150.7251" y="-15.4" font-family="sans-serif" font-size="14.00" fill="#000000"> &#160;Module</text>
<polygon fill="#80b1d3" stroke="transparent" points="213,-10 213,-30 233,-30 233,-10 213,-10"/>
<text text-anchor="start" x="236.7812" y="-15.4" font-family="sans-serif" font-size="14.00" fill="#000000"> &#160;Bootstrap</text>
<polygon fill="#fdb462" stroke="transparent" points="310,-10 310,-30 330,-30 330,-10 310,-10"/>
<text text-anchor="start" x="333.6732" y="-15.4" font-family="sans-serif" font-size="14.00" fill="#000000"> &#160;Providers</text>
<polygon fill="#fb8072" stroke="transparent" points="406,-10 406,-30 426,-30 426,-10 406,-10"/>
<text text-anchor="start" x="429.7258" y="-15.4" font-family="sans-serif" font-size="14.00" fill="#000000"> &#160;Exports</text>
<g id="clust1" class="cluster">
<title>cluster_Bootstrap3TemplatesModule</title>
<polygon fill="none" stroke="#000000" stroke-dasharray="1,5" points="37,-70 37,-268 459,-268 459,-70 37,-70"/>
</g>
<g id="clust2" class="cluster">
<title>cluster_Bootstrap3TemplatesModule_declarations</title>
<polygon fill="none" stroke="#000000" points="48,-78 48,-130 448,-130 448,-78 48,-78"/>
</g>
<g id="clust6" class="cluster">
<title>cluster_Bootstrap3TemplatesModule_exports</title>
<polygon fill="none" stroke="#000000" points="45,-208 45,-260 451,-260 451,-208 45,-208"/>
</g>
<!-- Bootstrap3LoginComponent -->
<g id="node1" class="node">
<title>Bootstrap3LoginComponent</title>
<polygon fill="#ffffb3" stroke="#000000" points="440.2133,-122 263.7867,-122 263.7867,-86 440.2133,-86 440.2133,-122"/>
<text text-anchor="middle" x="352" y="-99.8" font-family="Times,serif" font-size="14.00" fill="#000000">Bootstrap3LoginComponent</text>
</g>
<!-- Bootstrap3TemplatesModule -->
<g id="node3" class="node">
<title>Bootstrap3TemplatesModule</title>
<polygon fill="#8dd3c7" stroke="#000000" points="240.8005,-187 237.8005,-191 216.8005,-191 213.8005,-187 61.1995,-187 61.1995,-151 240.8005,-151 240.8005,-187"/>
<text text-anchor="middle" x="151" y="-164.8" font-family="Times,serif" font-size="14.00" fill="#000000">Bootstrap3TemplatesModule</text>
</g>
<!-- Bootstrap3LoginComponent&#45;&gt;Bootstrap3TemplatesModule -->
<g id="edge1" class="edge">
<title>Bootstrap3LoginComponent&#45;&gt;Bootstrap3TemplatesModule</title>
<path fill="none" stroke="#000000" d="M381.3689,-122.0225C381.3689,-139.3734 381.3689,-163 381.3689,-163 381.3689,-163 250.7263,-163 250.7263,-163"/>
<polygon fill="#000000" stroke="#000000" points="250.7263,-159.5001 240.7263,-163 250.7262,-166.5001 250.7263,-159.5001"/>
</g>
<!-- Bootstrap3RegisterComponent -->
<g id="node2" class="node">
<title>Bootstrap3RegisterComponent</title>
<polygon fill="#ffffb3" stroke="#000000" points="245.9227,-122 56.0773,-122 56.0773,-86 245.9227,-86 245.9227,-122"/>
<text text-anchor="middle" x="151" y="-99.8" font-family="Times,serif" font-size="14.00" fill="#000000">Bootstrap3RegisterComponent</text>
</g>
<!-- Bootstrap3RegisterComponent&#45;&gt;Bootstrap3TemplatesModule -->
<g id="edge2" class="edge">
<title>Bootstrap3RegisterComponent&#45;&gt;Bootstrap3TemplatesModule</title>
<path fill="none" stroke="#000000" d="M151,-122.1061C151,-122.1061 151,-140.991 151,-140.991"/>
<polygon fill="#000000" stroke="#000000" points="147.5001,-140.9909 151,-150.991 154.5001,-140.991 147.5001,-140.9909"/>
</g>
<!-- Bootstrap3LoginComponent  -->
<g id="node4" class="node">
<title>Bootstrap3LoginComponent </title>
<polygon fill="#fb8072" stroke="#000000" points="442.7134,-252 263.2866,-252 263.2866,-216 442.7134,-216 442.7134,-252"/>
<text text-anchor="middle" x="353" y="-229.8" font-family="Times,serif" font-size="14.00" fill="#000000">Bootstrap3LoginComponent </text>
</g>
<!-- Bootstrap3TemplatesModule&#45;&gt;Bootstrap3LoginComponent  -->
<g id="edge3" class="edge">
<title>Bootstrap3TemplatesModule&#45;&gt;Bootstrap3LoginComponent </title>
<path fill="none" stroke="#000000" stroke-dasharray="5,2" d="M240.8369,-175C282.3632,-175 322.6311,-175 322.6311,-175 322.6311,-175 322.6311,-205.9775 322.6311,-205.9775"/>
<polygon fill="#000000" stroke="#000000" points="319.1312,-205.9774 322.6311,-215.9775 326.1312,-205.9775 319.1312,-205.9774"/>
</g>
<!-- Bootstrap3RegisterComponent  -->
<g id="node5" class="node">
<title>Bootstrap3RegisterComponent </title>
<polygon fill="#fb8072" stroke="#000000" points="245.4222,-252 52.5778,-252 52.5778,-216 245.4222,-216 245.4222,-252"/>
<text text-anchor="middle" x="149" y="-229.8" font-family="Times,serif" font-size="14.00" fill="#000000">Bootstrap3RegisterComponent </text>
</g>
<!-- Bootstrap3TemplatesModule&#45;&gt;Bootstrap3RegisterComponent  -->
<g id="edge4" class="edge">
<title>Bootstrap3TemplatesModule&#45;&gt;Bootstrap3RegisterComponent </title>
<path fill="none" stroke="#000000" stroke-dasharray="5,2" d="M151,-187.1061C151,-187.1061 151,-205.991 151,-205.991"/>
<polygon fill="#000000" stroke="#000000" points="147.5001,-205.9909 151,-215.991 154.5001,-205.991 147.5001,-205.9909"/>
</g>
</g>
</svg>
