<?xml version="1.0" encoding="UTF-8" standalone="no"?>
<!DOCTYPE svg PUBLIC "-//W3C//DTD SVG 1.1//EN"
 "http://www.w3.org/Graphics/SVG/1.1/DTD/svg11.dtd">
<!-- Generated by graphviz version 2.40.1 (20161225.0304)
 -->
<!-- Title: dependencies Pages: 1 -->
<svg width="1196pt" height="284pt"
 viewBox="0.00 0.00 1196.00 284.00" xmlns="http://www.w3.org/2000/svg" xmlns:xlink="http://www.w3.org/1999/xlink">
<g id="graph0" class="graph" transform="scale(1 1) rotate(0) translate(4 280)">
<title>dependencies</title>
<polygon fill="#ffffff" stroke="transparent" points="-4,4 -4,-280 1192,-280 1192,4 -4,4"/>
<text text-anchor="start" x="573.0091" y="-42.4" font-family="sans-serif" font-weight="bold" font-size="14.00" fill="#000000">Legend</text>
<polygon fill="#ffffb3" stroke="transparent" points="360,-10 360,-30 380,-30 380,-10 360,-10"/>
<text text-anchor="start" x="383.629" y="-15.4" font-family="sans-serif" font-size="14.00" fill="#000000"> &#160;Declarations</text>
<polygon fill="#8dd3c7" stroke="transparent" points="473,-10 473,-30 493,-30 493,-10 473,-10"/>
<text text-anchor="start" x="496.7251" y="-15.4" font-family="sans-serif" font-size="14.00" fill="#000000"> &#160;Module</text>
<polygon fill="#80b1d3" stroke="transparent" points="559,-10 559,-30 579,-30 579,-10 559,-10"/>
<text text-anchor="start" x="582.7812" y="-15.4" font-family="sans-serif" font-size="14.00" fill="#000000"> &#160;Bootstrap</text>
<polygon fill="#fdb462" stroke="transparent" points="656,-10 656,-30 676,-30 676,-10 656,-10"/>
<text text-anchor="start" x="679.6732" y="-15.4" font-family="sans-serif" font-size="14.00" fill="#000000"> &#160;Providers</text>
<polygon fill="#fb8072" stroke="transparent" points="752,-10 752,-30 772,-30 772,-10 752,-10"/>
<text text-anchor="start" x="775.7258" y="-15.4" font-family="sans-serif" font-size="14.00" fill="#000000"> &#160;Exports</text>
<g id="clust1" class="cluster">
<title>cluster_UserModule</title>
<polygon fill="none" stroke="#000000" stroke-dasharray="1,5" points="8,-70 8,-268 1180,-268 1180,-70 8,-70"/>
</g>
<g id="clust2" class="cluster">
<title>cluster_UserModule_declarations</title>
<polygon fill="none" stroke="#000000" points="797,-78 797,-130 1172,-130 1172,-78 797,-78"/>
</g>
<g id="clust5" class="cluster">
<title>cluster_UserModule_imports</title>
<polygon fill="none" stroke="#000000" points="156,-78 156,-130 789,-130 789,-78 156,-78"/>
</g>
<g id="clust6" class="cluster">
<title>cluster_UserModule_exports</title>
<polygon fill="none" stroke="#000000" points="308,-208 308,-260 689,-260 689,-208 308,-208"/>
</g>
<g id="clust8" class="cluster">
<title>cluster_UserModule_providers</title>
<polygon fill="none" stroke="#000000" points="16,-78 16,-130 148,-130 148,-78 16,-78"/>
</g>
<!-- AuthumnViewDirective -->
<g id="node1" class="node">
<title>AuthumnViewDirective</title>
<polygon fill="#ffffb3" stroke="#000000" points="1163.7893,-122 1012.2107,-122 1012.2107,-86 1163.7893,-86 1163.7893,-122"/>
<text text-anchor="middle" x="1088" y="-99.8" font-family="Times,serif" font-size="14.00" fill="#000000">AuthumnViewDirective</text>
</g>
<!-- UserModule -->
<g id="node3" class="node">
<title>UserModule</title>
<polygon fill="#8dd3c7" stroke="#000000" points="550.9762,-187 547.9762,-191 526.9762,-191 523.9762,-187 465.0238,-187 465.0238,-151 550.9762,-151 550.9762,-187"/>
<text text-anchor="middle" x="508" y="-164.8" font-family="Times,serif" font-size="14.00" fill="#000000">UserModule</text>
</g>
<!-- AuthumnViewDirective&#45;&gt;UserModule -->
<g id="edge1" class="edge">
<title>AuthumnViewDirective&#45;&gt;UserModule</title>
<path fill="none" stroke="#000000" d="M1088,-122.2921C1088,-144.2057 1088,-178 1088,-178 1088,-178 561.1204,-178 561.1204,-178"/>
<polygon fill="#000000" stroke="#000000" points="561.1205,-174.5001 551.1204,-178 561.1204,-181.5001 561.1205,-174.5001"/>
</g>
<!-- ComponentFactoryComponent -->
<g id="node2" class="node">
<title>ComponentFactoryComponent</title>
<polygon fill="#ffffb3" stroke="#000000" points="994.9283,-122 805.0717,-122 805.0717,-86 994.9283,-86 994.9283,-122"/>
<text text-anchor="middle" x="900" y="-99.8" font-family="Times,serif" font-size="14.00" fill="#000000">ComponentFactoryComponent</text>
</g>
<!-- ComponentFactoryComponent&#45;&gt;UserModule -->
<g id="edge2" class="edge">
<title>ComponentFactoryComponent&#45;&gt;UserModule</title>
<path fill="none" stroke="#000000" d="M900,-122.1061C900,-141.3391 900,-169 900,-169 900,-169 561.0722,-169 561.0722,-169"/>
<polygon fill="#000000" stroke="#000000" points="561.0722,-165.5001 551.0722,-169 561.0722,-172.5001 561.0722,-165.5001"/>
</g>
<!-- AuthumnViewDirective  -->
<g id="node8" class="node">
<title>AuthumnViewDirective </title>
<polygon fill="#fb8072" stroke="#000000" points="681.2891,-252 526.7109,-252 526.7109,-216 681.2891,-216 681.2891,-252"/>
<text text-anchor="middle" x="604" y="-229.8" font-family="Times,serif" font-size="14.00" fill="#000000">AuthumnViewDirective </text>
</g>
<!-- UserModule&#45;&gt;AuthumnViewDirective  -->
<g id="edge7" class="edge">
<title>UserModule&#45;&gt;AuthumnViewDirective </title>
<path fill="none" stroke="#000000" stroke-dasharray="5,2" d="M538.7968,-187.1061C538.7968,-187.1061 538.7968,-205.991 538.7968,-205.991"/>
<polygon fill="#000000" stroke="#000000" points="535.2969,-205.9909 538.7968,-215.991 542.2969,-205.991 535.2969,-205.9909"/>
</g>
<!-- ComponentFactoryComponent  -->
<g id="node9" class="node">
<title>ComponentFactoryComponent </title>
<polygon fill="#fb8072" stroke="#000000" points="508.4278,-252 315.5722,-252 315.5722,-216 508.4278,-216 508.4278,-252"/>
<text text-anchor="middle" x="412" y="-229.8" font-family="Times,serif" font-size="14.00" fill="#000000">ComponentFactoryComponent </text>
</g>
<!-- UserModule&#45;&gt;ComponentFactoryComponent  -->
<g id="edge8" class="edge">
<title>UserModule&#45;&gt;ComponentFactoryComponent </title>
<path fill="none" stroke="#000000" stroke-dasharray="5,2" d="M486.7379,-187.1061C486.7379,-187.1061 486.7379,-205.991 486.7379,-205.991"/>
<polygon fill="#000000" stroke="#000000" points="483.238,-205.9909 486.7379,-215.991 490.238,-205.991 483.238,-205.9909"/>
</g>
<!-- MaterialTemplatesModule -->
<g id="node4" class="node">
<title>MaterialTemplatesModule</title>
<polygon fill="#8dd3c7" stroke="#000000" points="780.7836,-122 777.7836,-126 756.7836,-126 753.7836,-122 615.2164,-122 615.2164,-86 780.7836,-86 780.7836,-122"/>
<text text-anchor="middle" x="698" y="-99.8" font-family="Times,serif" font-size="14.00" fill="#000000">MaterialTemplatesModule</text>
</g>
<!-- MaterialTemplatesModule&#45;&gt;UserModule -->
<g id="edge3" class="edge">
<title>MaterialTemplatesModule&#45;&gt;UserModule</title>
<path fill="none" stroke="#000000" d="M648.3764,-122.027C648.3764,-138.3976 648.3764,-160 648.3764,-160 648.3764,-160 561.263,-160 561.263,-160"/>
<polygon fill="#000000" stroke="#000000" points="561.263,-156.5001 551.263,-160 561.2629,-163.5001 561.263,-156.5001"/>
</g>
<!-- Bootstrap3TemplatesModule -->
<g id="node5" class="node">
<title>Bootstrap3TemplatesModule</title>
<polygon fill="#8dd3c7" stroke="#000000" points="597.8005,-122 594.8005,-126 573.8005,-126 570.8005,-122 418.1995,-122 418.1995,-86 597.8005,-86 597.8005,-122"/>
<text text-anchor="middle" x="508" y="-99.8" font-family="Times,serif" font-size="14.00" fill="#000000">Bootstrap3TemplatesModule</text>
</g>
<!-- Bootstrap3TemplatesModule&#45;&gt;UserModule -->
<g id="edge4" class="edge">
<title>Bootstrap3TemplatesModule&#45;&gt;UserModule</title>
<path fill="none" stroke="#000000" d="M508,-122.1061C508,-122.1061 508,-140.991 508,-140.991"/>
<polygon fill="#000000" stroke="#000000" points="504.5001,-140.9909 508,-150.991 511.5001,-140.991 504.5001,-140.9909"/>
</g>
<!-- UserRoutingModule -->
<g id="node6" class="node">
<title>UserRoutingModule</title>
<polygon fill="#8dd3c7" stroke="#000000" points="400.594,-122 397.594,-126 376.594,-126 373.594,-122 269.406,-122 269.406,-86 400.594,-86 400.594,-122"/>
<text text-anchor="middle" x="335" y="-99.8" font-family="Times,serif" font-size="14.00" fill="#000000">UserRoutingModule</text>
</g>
<!-- UserRoutingModule&#45;&gt;UserModule -->
<g id="edge5" class="edge">
<title>UserRoutingModule&#45;&gt;UserModule</title>
<path fill="none" stroke="#000000" d="M358.0416,-122.027C358.0416,-138.3976 358.0416,-160 358.0416,-160 358.0416,-160 454.6258,-160 454.6258,-160"/>
<polygon fill="#000000" stroke="#000000" points="454.6258,-163.5001 464.6258,-160 454.6258,-156.5001 454.6258,-163.5001"/>
</g>
<!-- AuthModule -->
<g id="node7" class="node">
<title>AuthModule</title>
<polygon fill="#8dd3c7" stroke="#000000" points="251.5482,-122 248.5482,-126 227.5482,-126 224.5482,-122 164.4518,-122 164.4518,-86 251.5482,-86 251.5482,-122"/>
<text text-anchor="middle" x="208" y="-99.8" font-family="Times,serif" font-size="14.00" fill="#000000">AuthModule</text>
</g>
<!-- AuthModule&#45;&gt;UserModule -->
<g id="edge6" class="edge">
<title>AuthModule&#45;&gt;UserModule</title>
<path fill="none" stroke="#000000" d="M208,-122.1061C208,-141.3391 208,-169 208,-169 208,-169 455.0173,-169 455.0173,-169"/>
<polygon fill="#000000" stroke="#000000" points="455.0173,-172.5001 465.0173,-169 455.0173,-165.5001 455.0173,-172.5001"/>
</g>
<!-- UserService -->
<g id="node10" class="node">
<title>UserService</title>
<ellipse fill="#fdb462" stroke="#000000" cx="82" cy="-104" rx="58.4415" ry="18"/>
<text text-anchor="middle" x="82" y="-99.8" font-family="Times,serif" font-size="14.00" fill="#000000">UserService</text>
</g>
<!-- UserService&#45;&gt;UserModule -->
<g id="edge9" class="edge">
<title>UserService&#45;&gt;UserModule</title>
<path fill="none" stroke="#000000" d="M82,-122.2921C82,-144.2057 82,-178 82,-178 82,-178 454.8085,-178 454.8085,-178"/>
<polygon fill="#000000" stroke="#000000" points="454.8085,-181.5001 464.8085,-178 454.8085,-174.5001 454.8085,-181.5001"/>
</g>
</g>
</svg>
