<?xml version="1.0" encoding="UTF-8" standalone="no"?>
<!DOCTYPE svg PUBLIC "-//W3C//DTD SVG 1.1//EN"
 "http://www.w3.org/Graphics/SVG/1.1/DTD/svg11.dtd">
<!-- Generated by graphviz version 2.40.1 (20161225.0304)
 -->
<!-- Title: dependencies Pages: 1 -->
<svg width="750pt" height="284pt"
 viewBox="0.00 0.00 750.00 284.00" xmlns="http://www.w3.org/2000/svg" xmlns:xlink="http://www.w3.org/1999/xlink">
<g id="graph0" class="graph" transform="scale(1 1) rotate(0) translate(4 280)">
<title>dependencies</title>
<polygon fill="#ffffff" stroke="transparent" points="-4,4 -4,-280 746,-280 746,4 -4,4"/>
<text text-anchor="start" x="350.0091" y="-42.4" font-family="sans-serif" font-weight="bold" font-size="14.00" fill="#000000">Legend</text>
<polygon fill="#ffffb3" stroke="transparent" points="137,-10 137,-30 157,-30 157,-10 137,-10"/>
<text text-anchor="start" x="160.629" y="-15.4" font-family="sans-serif" font-size="14.00" fill="#000000"> &#160;Declarations</text>
<polygon fill="#8dd3c7" stroke="transparent" points="250,-10 250,-30 270,-30 270,-10 250,-10"/>
<text text-anchor="start" x="273.7251" y="-15.4" font-family="sans-serif" font-size="14.00" fill="#000000"> &#160;Module</text>
<polygon fill="#80b1d3" stroke="transparent" points="336,-10 336,-30 356,-30 356,-10 336,-10"/>
<text text-anchor="start" x="359.7812" y="-15.4" font-family="sans-serif" font-size="14.00" fill="#000000"> &#160;Bootstrap</text>
<polygon fill="#fdb462" stroke="transparent" points="433,-10 433,-30 453,-30 453,-10 433,-10"/>
<text text-anchor="start" x="456.6732" y="-15.4" font-family="sans-serif" font-size="14.00" fill="#000000"> &#160;Providers</text>
<polygon fill="#fb8072" stroke="transparent" points="529,-10 529,-30 549,-30 549,-10 529,-10"/>
<text text-anchor="start" x="552.7258" y="-15.4" font-family="sans-serif" font-size="14.00" fill="#000000"> &#160;Exports</text>
<g id="clust1" class="cluster">
<title>cluster_UserComponentsModule</title>
<polygon fill="none" stroke="#000000" stroke-dasharray="1,5" points="8,-70 8,-268 734,-268 734,-70 8,-70"/>
</g>
<g id="clust2" class="cluster">
<title>cluster_UserComponentsModule_declarations</title>
<polygon fill="none" stroke="#000000" points="146,-78 146,-130 726,-130 726,-78 146,-78"/>
</g>
<g id="clust7" class="cluster">
<title>cluster_UserComponentsModule_imports</title>
<polygon fill="none" stroke="#000000" points="16,-78 16,-130 138,-130 138,-78 16,-78"/>
</g>
<g id="clust8" class="cluster">
<title>cluster_UserComponentsModule_exports</title>
<polygon fill="none" stroke="#000000" points="74,-208 74,-260 669,-260 669,-208 74,-208"/>
</g>
<!-- UserComponent -->
<g id="node1" class="node">
<title>UserComponent</title>
<polygon fill="#ffffb3" stroke="#000000" points="717.7591,-122 610.2409,-122 610.2409,-86 717.7591,-86 717.7591,-122"/>
<text text-anchor="middle" x="664" y="-99.8" font-family="Times,serif" font-size="14.00" fill="#000000">UserComponent</text>
</g>
<!-- UserComponentsModule -->
<g id="node5" class="node">
<title>UserComponentsModule</title>
<polygon fill="#8dd3c7" stroke="#000000" points="458.2534,-187 455.2534,-191 434.2534,-191 431.2534,-187 301.7466,-187 301.7466,-151 458.2534,-151 458.2534,-187"/>
<text text-anchor="middle" x="380" y="-164.8" font-family="Times,serif" font-size="14.00" fill="#000000">UserComponentsModule</text>
</g>
<!-- UserComponent&#45;&gt;UserComponentsModule -->
<g id="edge1" class="edge">
<title>UserComponent&#45;&gt;UserComponentsModule</title>
<path fill="none" stroke="#000000" d="M635.375,-122.1061C635.375,-141.3391 635.375,-169 635.375,-169 635.375,-169 468.3564,-169 468.3564,-169"/>
<polygon fill="#000000" stroke="#000000" points="468.3565,-165.5001 458.3564,-169 468.3564,-172.5001 468.3565,-165.5001"/>
</g>
<!-- LoginComponent -->
<g id="node2" class="node">
<title>LoginComponent</title>
<polygon fill="#ffffb3" stroke="#000000" points="592.2758,-122 477.7242,-122 477.7242,-86 592.2758,-86 592.2758,-122"/>
<text text-anchor="middle" x="535" y="-99.8" font-family="Times,serif" font-size="14.00" fill="#000000">LoginComponent</text>
</g>
<!-- LoginComponent&#45;&gt;UserComponentsModule -->
<g id="edge2" class="edge">
<title>LoginComponent&#45;&gt;UserComponentsModule</title>
<path fill="none" stroke="#000000" d="M504.375,-122.027C504.375,-138.3976 504.375,-160 504.375,-160 504.375,-160 468.4157,-160 468.4157,-160"/>
<polygon fill="#000000" stroke="#000000" points="468.4157,-156.5001 458.4157,-160 468.4157,-163.5001 468.4157,-156.5001"/>
</g>
<!-- LostPasswordComponent -->
<g id="node3" class="node">
<title>LostPasswordComponent</title>
<polygon fill="#ffffb3" stroke="#000000" points="459.8738,-122 300.1262,-122 300.1262,-86 459.8738,-86 459.8738,-122"/>
<text text-anchor="middle" x="380" y="-99.8" font-family="Times,serif" font-size="14.00" fill="#000000">LostPasswordComponent</text>
</g>
<!-- LostPasswordComponent&#45;&gt;UserComponentsModule -->
<g id="edge3" class="edge">
<title>LostPasswordComponent&#45;&gt;UserComponentsModule</title>
<path fill="none" stroke="#000000" d="M380,-122.1061C380,-122.1061 380,-140.991 380,-140.991"/>
<polygon fill="#000000" stroke="#000000" points="376.5001,-140.9909 380,-150.991 383.5001,-140.991 376.5001,-140.9909"/>
</g>
<!-- RegisterComponent -->
<g id="node4" class="node">
<title>RegisterComponent</title>
<polygon fill="#ffffb3" stroke="#000000" points="281.9846,-122 154.0154,-122 154.0154,-86 281.9846,-86 281.9846,-122"/>
<text text-anchor="middle" x="218" y="-99.8" font-family="Times,serif" font-size="14.00" fill="#000000">RegisterComponent</text>
</g>
<!-- RegisterComponent&#45;&gt;UserComponentsModule -->
<g id="edge4" class="edge">
<title>RegisterComponent&#45;&gt;UserComponentsModule</title>
<path fill="none" stroke="#000000" d="M256.6527,-122.027C256.6527,-138.3976 256.6527,-160 256.6527,-160 256.6527,-160 291.5328,-160 291.5328,-160"/>
<polygon fill="#000000" stroke="#000000" points="291.5329,-163.5001 301.5328,-160 291.5328,-156.5001 291.5329,-163.5001"/>
</g>
<!-- UserComponent  -->
<g id="node7" class="node">
<title>UserComponent </title>
<polygon fill="#fb8072" stroke="#000000" points="660.7591,-252 549.2409,-252 549.2409,-216 660.7591,-216 660.7591,-252"/>
<text text-anchor="middle" x="605" y="-229.8" font-family="Times,serif" font-size="14.00" fill="#000000">UserComponent </text>
</g>
<!-- UserComponentsModule&#45;&gt;UserComponent  -->
<g id="edge6" class="edge">
<title>UserComponentsModule&#45;&gt;UserComponent </title>
<path fill="none" stroke="#000000" stroke-dasharray="5,2" d="M458.4642,-178C511.1113,-178 570.8792,-178 570.8792,-178 570.8792,-178 570.8792,-205.973 570.8792,-205.973"/>
<polygon fill="#000000" stroke="#000000" points="567.3793,-205.973 570.8792,-215.973 574.3793,-205.973 567.3793,-205.973"/>
</g>
<!-- LoginComponent  -->
<g id="node8" class="node">
<title>LoginComponent </title>
<polygon fill="#fb8072" stroke="#000000" points="531.2759,-252 412.7241,-252 412.7241,-216 531.2759,-216 531.2759,-252"/>
<text text-anchor="middle" x="472" y="-229.8" font-family="Times,serif" font-size="14.00" fill="#000000">LoginComponent </text>
</g>
<!-- UserComponentsModule&#45;&gt;LoginComponent  -->
<g id="edge7" class="edge">
<title>UserComponentsModule&#45;&gt;LoginComponent </title>
<path fill="none" stroke="#000000" stroke-dasharray="5,2" d="M435.6194,-187.1061C435.6194,-187.1061 435.6194,-205.991 435.6194,-205.991"/>
<polygon fill="#000000" stroke="#000000" points="432.1195,-205.9909 435.6194,-215.991 439.1195,-205.991 432.1195,-205.9909"/>
</g>
<!-- LostPasswordComponent  -->
<g id="node9" class="node">
<title>LostPasswordComponent </title>
<polygon fill="#fb8072" stroke="#000000" points="394.8742,-252 231.1258,-252 231.1258,-216 394.8742,-216 394.8742,-252"/>
<text text-anchor="middle" x="313" y="-229.8" font-family="Times,serif" font-size="14.00" fill="#000000">LostPasswordComponent </text>
</g>
<!-- UserComponentsModule&#45;&gt;LostPasswordComponent  -->
<g id="edge8" class="edge">
<title>UserComponentsModule&#45;&gt;LostPasswordComponent </title>
<path fill="none" stroke="#000000" stroke-dasharray="5,2" d="M348.1552,-187.1061C348.1552,-187.1061 348.1552,-205.991 348.1552,-205.991"/>
<polygon fill="#000000" stroke="#000000" points="344.6552,-205.9909 348.1552,-215.991 351.6552,-205.991 344.6552,-205.9909"/>
</g>
<!-- RegisterComponent  -->
<g id="node10" class="node">
<title>RegisterComponent </title>
<polygon fill="#fb8072" stroke="#000000" points="213.9855,-252 82.0145,-252 82.0145,-216 213.9855,-216 213.9855,-252"/>
<text text-anchor="middle" x="148" y="-229.8" font-family="Times,serif" font-size="14.00" fill="#000000">RegisterComponent </text>
</g>
<!-- UserComponentsModule&#45;&gt;RegisterComponent  -->
<g id="edge9" class="edge">
<title>UserComponentsModule&#45;&gt;RegisterComponent </title>
<path fill="none" stroke="#000000" stroke-dasharray="5,2" d="M301.6407,-178C247.0122,-178 183.875,-178 183.875,-178 183.875,-178 183.875,-205.973 183.875,-205.973"/>
<polygon fill="#000000" stroke="#000000" points="180.3751,-205.973 183.875,-215.973 187.3751,-205.973 180.3751,-205.973"/>
</g>
<!-- MaterialModule -->
<g id="node6" class="node">
<title>MaterialModule</title>
<polygon fill="#8dd3c7" stroke="#000000" points="130.4706,-122 127.4706,-126 106.4706,-126 103.4706,-122 23.5294,-122 23.5294,-86 130.4706,-86 130.4706,-122"/>
<text text-anchor="middle" x="77" y="-99.8" font-family="Times,serif" font-size="14.00" fill="#000000">MaterialModule</text>
</g>
<!-- MaterialModule&#45;&gt;UserComponentsModule -->
<g id="edge5" class="edge">
<title>MaterialModule&#45;&gt;UserComponentsModule</title>
<path fill="none" stroke="#000000" d="M106.3715,-122.1061C106.3715,-141.3391 106.3715,-169 106.3715,-169 106.3715,-169 291.5891,-169 291.5891,-169"/>
<polygon fill="#000000" stroke="#000000" points="291.5891,-172.5001 301.5891,-169 291.589,-165.5001 291.5891,-172.5001"/>
</g>
</g>
</svg>
