<?xml version="1.0" encoding="UTF-8" standalone="no"?>
<!DOCTYPE svg PUBLIC "-//W3C//DTD SVG 1.1//EN"
 "http://www.w3.org/Graphics/SVG/1.1/DTD/svg11.dtd">
<!-- Generated by graphviz version 2.40.1 (20161225.0304)
 -->
<!-- Title: dependencies Pages: 1 -->
<svg width="898pt" height="284pt"
 viewBox="0.00 0.00 898.00 284.00" xmlns="http://www.w3.org/2000/svg" xmlns:xlink="http://www.w3.org/1999/xlink">
<g id="graph0" class="graph" transform="scale(1 1) rotate(0) translate(4 280)">
<title>dependencies</title>
<polygon fill="#ffffff" stroke="transparent" points="-4,4 -4,-280 894,-280 894,4 -4,4"/>
<text text-anchor="start" x="424.0091" y="-42.4" font-family="sans-serif" font-weight="bold" font-size="14.00" fill="#000000">Legend</text>
<polygon fill="#ffffb3" stroke="transparent" points="211,-10 211,-30 231,-30 231,-10 211,-10"/>
<text text-anchor="start" x="234.629" y="-15.4" font-family="sans-serif" font-size="14.00" fill="#000000"> &#160;Declarations</text>
<polygon fill="#8dd3c7" stroke="transparent" points="324,-10 324,-30 344,-30 344,-10 324,-10"/>
<text text-anchor="start" x="347.7251" y="-15.4" font-family="sans-serif" font-size="14.00" fill="#000000"> &#160;Module</text>
<polygon fill="#80b1d3" stroke="transparent" points="410,-10 410,-30 430,-30 430,-10 410,-10"/>
<text text-anchor="start" x="433.7812" y="-15.4" font-family="sans-serif" font-size="14.00" fill="#000000"> &#160;Bootstrap</text>
<polygon fill="#fdb462" stroke="transparent" points="507,-10 507,-30 527,-30 527,-10 507,-10"/>
<text text-anchor="start" x="530.6732" y="-15.4" font-family="sans-serif" font-size="14.00" fill="#000000"> &#160;Providers</text>
<polygon fill="#fb8072" stroke="transparent" points="603,-10 603,-30 623,-30 623,-10 603,-10"/>
<text text-anchor="start" x="626.7258" y="-15.4" font-family="sans-serif" font-size="14.00" fill="#000000"> &#160;Exports</text>
<g id="clust1" class="cluster">
<title>cluster_MaterialTemplatesModule</title>
<polygon fill="none" stroke="#000000" stroke-dasharray="1,5" points="8,-70 8,-268 882,-268 882,-70 8,-70"/>
</g>
<g id="clust2" class="cluster">
<title>cluster_MaterialTemplatesModule_declarations</title>
<polygon fill="none" stroke="#000000" points="146,-78 146,-130 874,-130 874,-78 146,-78"/>
</g>
<g id="clust7" class="cluster">
<title>cluster_MaterialTemplatesModule_imports</title>
<polygon fill="none" stroke="#000000" points="16,-78 16,-130 138,-130 138,-78 16,-78"/>
</g>
<g id="clust8" class="cluster">
<title>cluster_MaterialTemplatesModule_exports</title>
<polygon fill="none" stroke="#000000" points="75,-208 75,-260 816,-260 816,-208 75,-208"/>
</g>
<!-- MaterialLoginComponent -->
<g id="node1" class="node">
<title>MaterialLoginComponent</title>
<polygon fill="#ffffb3" stroke="#000000" points="866.1965,-122 703.8035,-122 703.8035,-86 866.1965,-86 866.1965,-122"/>
<text text-anchor="middle" x="785" y="-99.8" font-family="Times,serif" font-size="14.00" fill="#000000">MaterialLoginComponent</text>
</g>
<!-- MaterialTemplatesModule -->
<g id="node5" class="node">
<title>MaterialTemplatesModule</title>
<polygon fill="#8dd3c7" stroke="#000000" points="496.7836,-187 493.7836,-191 472.7836,-191 469.7836,-187 331.2164,-187 331.2164,-151 496.7836,-151 496.7836,-187"/>
<text text-anchor="middle" x="414" y="-164.8" font-family="Times,serif" font-size="14.00" fill="#000000">MaterialTemplatesModule</text>
</g>
<!-- MaterialLoginComponent&#45;&gt;MaterialTemplatesModule -->
<g id="edge1" class="edge">
<title>MaterialLoginComponent&#45;&gt;MaterialTemplatesModule</title>
<path fill="none" stroke="#000000" d="M755.875,-122.1061C755.875,-141.3391 755.875,-169 755.875,-169 755.875,-169 506.7584,-169 506.7584,-169"/>
<polygon fill="#000000" stroke="#000000" points="506.7584,-165.5001 496.7584,-169 506.7584,-172.5001 506.7584,-165.5001"/>
</g>
<!-- MaterialRegisterComponent -->
<g id="node2" class="node">
<title>MaterialRegisterComponent</title>
<polygon fill="#ffffb3" stroke="#000000" points="685.9059,-122 510.0941,-122 510.0941,-86 685.9059,-86 685.9059,-122"/>
<text text-anchor="middle" x="598" y="-99.8" font-family="Times,serif" font-size="14.00" fill="#000000">MaterialRegisterComponent</text>
</g>
<!-- MaterialRegisterComponent&#45;&gt;MaterialTemplatesModule -->
<g id="edge2" class="edge">
<title>MaterialRegisterComponent&#45;&gt;MaterialTemplatesModule</title>
<path fill="none" stroke="#000000" d="M567.375,-122.027C567.375,-138.3976 567.375,-160 567.375,-160 567.375,-160 506.972,-160 506.972,-160"/>
<polygon fill="#000000" stroke="#000000" points="506.972,-156.5001 496.972,-160 506.972,-163.5001 506.972,-156.5001"/>
</g>
<!-- MaterialTabsComponent -->
<g id="node3" class="node">
<title>MaterialTabsComponent</title>
<polygon fill="#ffffb3" stroke="#000000" points="491.965,-122 336.035,-122 336.035,-86 491.965,-86 491.965,-122"/>
<text text-anchor="middle" x="414" y="-99.8" font-family="Times,serif" font-size="14.00" fill="#000000">MaterialTabsComponent</text>
</g>
<!-- MaterialTabsComponent&#45;&gt;MaterialTemplatesModule -->
<g id="edge3" class="edge">
<title>MaterialTabsComponent&#45;&gt;MaterialTemplatesModule</title>
<path fill="none" stroke="#000000" d="M414,-122.1061C414,-122.1061 414,-140.991 414,-140.991"/>
<polygon fill="#000000" stroke="#000000" points="410.5001,-140.9909 414,-150.991 417.5001,-140.991 410.5001,-140.9909"/>
</g>
<!-- MaterialSocialComponent -->
<g id="node4" class="node">
<title>MaterialSocialComponent</title>
<polygon fill="#ffffb3" stroke="#000000" points="317.7464,-122 154.2536,-122 154.2536,-86 317.7464,-86 317.7464,-122"/>
<text text-anchor="middle" x="236" y="-99.8" font-family="Times,serif" font-size="14.00" fill="#000000">MaterialSocialComponent</text>
</g>
<!-- MaterialSocialComponent&#45;&gt;MaterialTemplatesModule -->
<g id="edge4" class="edge">
<title>MaterialSocialComponent&#45;&gt;MaterialTemplatesModule</title>
<path fill="none" stroke="#000000" d="M293.0703,-122.027C293.0703,-138.3976 293.0703,-160 293.0703,-160 293.0703,-160 321.3332,-160 321.3332,-160"/>
<polygon fill="#000000" stroke="#000000" points="321.3332,-163.5001 331.3332,-160 321.3332,-156.5001 321.3332,-163.5001"/>
</g>
<!-- MaterialLoginComponent  -->
<g id="node7" class="node">
<title>MaterialLoginComponent </title>
<polygon fill="#fb8072" stroke="#000000" points="807.6967,-252 642.3033,-252 642.3033,-216 807.6967,-216 807.6967,-252"/>
<text text-anchor="middle" x="725" y="-229.8" font-family="Times,serif" font-size="14.00" fill="#000000">MaterialLoginComponent </text>
</g>
<!-- MaterialTemplatesModule&#45;&gt;MaterialLoginComponent  -->
<g id="edge6" class="edge">
<title>MaterialTemplatesModule&#45;&gt;MaterialLoginComponent </title>
<path fill="none" stroke="#000000" stroke-dasharray="5,2" d="M496.875,-178C569.6265,-178 663.9273,-178 663.9273,-178 663.9273,-178 663.9273,-205.973 663.9273,-205.973"/>
<polygon fill="#000000" stroke="#000000" points="660.4273,-205.973 663.9273,-215.973 667.4273,-205.973 660.4273,-205.973"/>
</g>
<!-- MaterialRegisterComponent  -->
<g id="node8" class="node">
<title>MaterialRegisterComponent </title>
<polygon fill="#fb8072" stroke="#000000" points="624.4054,-252 445.5946,-252 445.5946,-216 624.4054,-216 624.4054,-252"/>
<text text-anchor="middle" x="535" y="-229.8" font-family="Times,serif" font-size="14.00" fill="#000000">MaterialRegisterComponent </text>
</g>
<!-- MaterialTemplatesModule&#45;&gt;MaterialRegisterComponent  -->
<g id="edge7" class="edge">
<title>MaterialTemplatesModule&#45;&gt;MaterialRegisterComponent </title>
<path fill="none" stroke="#000000" stroke-dasharray="5,2" d="M471.0945,-187.1061C471.0945,-187.1061 471.0945,-205.991 471.0945,-205.991"/>
<polygon fill="#000000" stroke="#000000" points="467.5946,-205.9909 471.0945,-215.991 474.5946,-205.991 467.5946,-205.9909"/>
</g>
<!-- MaterialTabsComponent  -->
<g id="node9" class="node">
<title>MaterialTabsComponent </title>
<polygon fill="#fb8072" stroke="#000000" points="427.9657,-252 268.0343,-252 268.0343,-216 427.9657,-216 427.9657,-252"/>
<text text-anchor="middle" x="348" y="-229.8" font-family="Times,serif" font-size="14.00" fill="#000000">MaterialTabsComponent </text>
</g>
<!-- MaterialTemplatesModule&#45;&gt;MaterialTabsComponent  -->
<g id="edge8" class="edge">
<title>MaterialTemplatesModule&#45;&gt;MaterialTabsComponent </title>
<path fill="none" stroke="#000000" stroke-dasharray="5,2" d="M379.5454,-187.1061C379.5454,-187.1061 379.5454,-205.991 379.5454,-205.991"/>
<polygon fill="#000000" stroke="#000000" points="376.0455,-205.9909 379.5454,-215.991 383.0455,-205.991 376.0455,-205.9909"/>
</g>
<!-- MaterialSocialComponent  -->
<g id="node10" class="node">
<title>MaterialSocialComponent </title>
<polygon fill="#fb8072" stroke="#000000" points="250.7464,-252 83.2536,-252 83.2536,-216 250.7464,-216 250.7464,-252"/>
<text text-anchor="middle" x="167" y="-229.8" font-family="Times,serif" font-size="14.00" fill="#000000">MaterialSocialComponent </text>
</g>
<!-- MaterialTemplatesModule&#45;&gt;MaterialSocialComponent  -->
<g id="edge9" class="edge">
<title>MaterialTemplatesModule&#45;&gt;MaterialSocialComponent </title>
<path fill="none" stroke="#000000" stroke-dasharray="5,2" d="M331.271,-178C271.9164,-178 202.375,-178 202.375,-178 202.375,-178 202.375,-205.973 202.375,-205.973"/>
<polygon fill="#000000" stroke="#000000" points="198.8751,-205.973 202.375,-215.973 205.8751,-205.973 198.8751,-205.973"/>
</g>
<!-- MaterialModule -->
<g id="node6" class="node">
<title>MaterialModule</title>
<polygon fill="#8dd3c7" stroke="#000000" points="130.4706,-122 127.4706,-126 106.4706,-126 103.4706,-122 23.5294,-122 23.5294,-86 130.4706,-86 130.4706,-122"/>
<text text-anchor="middle" x="77" y="-99.8" font-family="Times,serif" font-size="14.00" fill="#000000">MaterialModule</text>
</g>
<!-- MaterialModule&#45;&gt;MaterialTemplatesModule -->
<g id="edge5" class="edge">
<title>MaterialModule&#45;&gt;MaterialTemplatesModule</title>
<path fill="none" stroke="#000000" d="M106.9311,-122.1061C106.9311,-141.3391 106.9311,-169 106.9311,-169 106.9311,-169 321.3072,-169 321.3072,-169"/>
<polygon fill="#000000" stroke="#000000" points="321.3073,-172.5001 331.3072,-169 321.3072,-165.5001 321.3073,-172.5001"/>
</g>
</g>
</svg>
